<svg xmlns="http://www.w3.org/2000/svg" width="554" height="554" viewBox="0 0 554 554" version="1.1"><path d="M 254.500 50.730 C 197.652 84.744, 104.904 139.963, 100.251 142.565 C 97.364 144.179, 95.002 145.731, 95.001 146.014 C 95 146.572, 146.437 176.493, 149.168 177.522 C 150.253 177.931, 156.717 174.679, 167.668 168.215 C 176.926 162.750, 197.775 150.508, 214 141.010 C 230.225 131.513, 250.966 119.297, 260.092 113.864 L 276.684 103.985 324.592 132.152 C 350.941 147.644, 379.198 164.297, 387.385 169.159 C 395.572 174.022, 402.637 178, 403.087 178 C 403.536 178, 409.438 174.775, 416.202 170.834 C 422.966 166.892, 435.382 159.723, 443.794 154.903 L 459.088 146.139 432.294 130.214 C 417.557 121.456, 382.100 100.437, 353.500 83.507 C 324.900 66.577, 295.963 49.412, 289.197 45.362 C 282.430 41.313, 276.580 38.037, 276.197 38.083 C 275.813 38.128, 266.050 43.820, 254.500 50.730 M 267.500 142.599 C 263.100 145.165, 254.325 150.310, 248 154.031 C 241.675 157.752, 224.350 167.871, 209.500 176.518 C 179.333 194.084, 178.521 194.595, 179.677 195.276 C 204.989 210.182, 275.604 251.175, 276.202 251.310 C 277.518 251.607, 373.928 195.599, 373.678 194.683 C 373.346 193.464, 280.264 139.129, 277.180 138.354 C 276.256 138.122, 271.900 140.032, 267.500 142.599 M 74.233 273.641 C 74.500 383.500, 74.500 383.500, 76.727 387.664 C 79.423 392.708, 75.350 390.146, 156 437.519 C 190.375 457.710, 227.592 479.585, 238.705 486.129 C 249.817 492.674, 259.605 498.295, 260.455 498.621 C 261.831 499.149, 262 495.284, 262 463.348 C 262 428.048, 261.967 427.460, 259.910 426.176 C 258.760 425.458, 235.023 411.582, 207.160 395.340 C 179.297 379.099, 151.981 363.160, 146.457 359.920 L 136.414 354.031 136.732 280.709 C 136.906 240.382, 136.693 205.674, 136.258 203.581 C 135.481 199.838, 135.029 199.519, 108.484 184.033 C 93.643 175.374, 79.805 167.275, 77.733 166.036 L 73.966 163.782 74.233 273.641 M 447.500 182.518 L 417.500 200.025 417 277.181 L 416.500 354.337 408.500 358.990 C 404.100 361.549, 375.863 377.991, 345.750 395.527 L 291 427.412 291 463.617 L 291 499.823 346.250 467.303 C 376.637 449.417, 416.575 425.997, 435 415.258 C 453.425 404.519, 469.963 394.645, 471.751 393.315 C 479 387.923, 478.469 396.889, 478.771 274.750 C 478.921 214.387, 478.696 165.002, 478.271 165.005 C 477.847 165.008, 464 172.889, 447.500 182.518 M 163 277.309 L 163 337.786 173.250 343.804 C 178.887 347.114, 196.100 357.130, 211.500 366.061 C 226.900 374.992, 244.375 385.157, 250.333 388.649 C 256.292 392.142, 261.354 395, 261.583 395 C 261.813 395, 262 367.865, 262 334.700 L 262 274.399 213.350 245.950 C 186.592 230.302, 164.317 217.350, 163.850 217.167 C 163.382 216.983, 163 244.048, 163 277.309 M 343.970 243.588 C 318.961 258.211, 296.816 271.149, 294.758 272.338 L 291.015 274.500 291.008 334.750 C 291.003 367.887, 291.217 395, 291.483 395 C 291.936 395, 360.062 355.520, 381 343.124 L 390.500 337.500 390.758 277.250 C 390.900 244.113, 390.661 217, 390.228 217 C 389.794 217, 368.978 228.965, 343.970 243.588" stroke="none" fill="#050505" fill-rule="evenodd"/><path d="M 80.633 1.545 C 71.073 3.455, 64.795 5.635, 55.500 10.271 C 44.552 15.732, 39.812 19.100, 30.643 27.932 C 14.918 43.078, 5.477 60.351, 1.520 81.210 C 0.194 88.199, 0 113.185, 0 277 C 0 479.012, -0.180 471.443, 4.995 486.486 C 7.359 493.357, 13.135 504.857, 17.307 511 C 21.786 517.595, 34.593 530.564, 41.556 535.556 C 49.566 541.299, 64.572 548.446, 74.500 551.245 C 82.500 553.500, 82.500 553.500, 272.500 553.806 C 413.671 554.033, 464.427 553.811, 470 552.944 C 484.878 550.629, 500.060 544.399, 512.500 535.504 C 519.426 530.552, 532.219 517.586, 536.735 510.940 C 544.308 499.798, 551.129 483.046, 552.596 471.988 C 552.963 469.220, 553.654 466.714, 554.132 466.419 C 554.618 466.118, 555 382.240, 555 275.882 C 555 167.781, 554.623 86.115, 554.126 86.422 C 553.646 86.719, 552.955 84.716, 552.590 81.970 C 551.129 70.953, 544.296 54.184, 536.735 43.060 C 532.215 36.409, 519.429 23.452, 512.444 18.444 C 504.434 12.701, 489.428 5.554, 479.500 2.755 C 471.500 0.500, 471.500 0.500, 279.500 0.336 C 120.294 0.201, 86.327 0.407, 80.633 1.545 M 254.500 50.730 C 197.652 84.744, 104.904 139.963, 100.251 142.565 C 97.364 144.179, 95.002 145.731, 95.001 146.014 C 95 146.572, 146.437 176.493, 149.168 177.522 C 150.253 177.931, 156.717 174.679, 167.668 168.215 C 176.926 162.750, 197.775 150.508, 214 141.010 C 230.225 131.513, 250.966 119.297, 260.092 113.864 L 276.684 103.985 324.592 132.152 C 350.941 147.644, 379.198 164.297, 387.385 169.159 C 395.572 174.022, 402.637 178, 403.087 178 C 403.536 178, 409.438 174.775, 416.202 170.834 C 422.966 166.892, 435.382 159.723, 443.794 154.903 L 459.088 146.139 432.294 130.214 C 417.557 121.456, 382.100 100.437, 353.500 83.507 C 324.900 66.577, 295.963 49.412, 289.197 45.362 C 282.430 41.313, 276.580 38.037, 276.197 38.083 C 275.813 38.128, 266.050 43.820, 254.500 50.730 M 0.490 277 C 0.490 381.775, 0.607 424.638, 0.750 372.250 C 0.893 319.863, 0.893 234.138, 0.750 181.750 C 0.607 129.363, 0.490 172.225, 0.490 277 M 267.500 142.599 C 263.100 145.165, 254.325 150.310, 248 154.031 C 241.675 157.752, 224.350 167.871, 209.500 176.518 C 179.333 194.084, 178.521 194.595, 179.677 195.276 C 204.989 210.182, 275.604 251.175, 276.202 251.310 C 277.518 251.607, 373.928 195.599, 373.678 194.683 C 373.346 193.464, 280.264 139.129, 277.180 138.354 C 276.256 138.122, 271.900 140.032, 267.500 142.599 M 74.233 273.641 C 74.500 383.500, 74.500 383.500, 76.727 387.664 C 79.423 392.708, 75.350 390.146, 156 437.519 C 190.375 457.710, 227.592 479.585, 238.705 486.129 C 249.817 492.674, 259.605 498.295, 260.455 498.621 C 261.831 499.149, 262 495.284, 262 463.348 C 262 428.048, 261.967 427.460, 259.910 426.176 C 258.760 425.458, 235.023 411.582, 207.160 395.340 C 179.297 379.099, 151.981 363.160, 146.457 359.920 L 136.414 354.031 136.732 280.709 C 136.906 240.382, 136.693 205.674, 136.258 203.581 C 135.481 199.838, 135.029 199.519, 108.484 184.033 C 93.643 175.374, 79.805 167.275, 77.733 166.036 L 73.966 163.782 74.233 273.641 M 447.500 182.518 L 417.500 200.025 417 277.181 L 416.500 354.337 408.500 358.990 C 404.100 361.549, 375.863 377.991, 345.750 395.527 L 291 427.412 291 463.617 L 291 499.823 346.250 467.303 C 376.637 449.417, 416.575 425.997, 435 415.258 C 453.425 404.519, 469.963 394.645, 471.751 393.315 C 479 387.923, 478.469 396.889, 478.771 274.750 C 478.921 214.387, 478.696 165.002, 478.271 165.005 C 477.847 165.008, 464 172.889, 447.500 182.518 M 163 277.309 L 163 337.786 173.250 343.804 C 178.887 347.114, 196.100 357.130, 211.500 366.061 C 226.900 374.992, 244.375 385.157, 250.333 388.649 C 256.292 392.142, 261.354 395, 261.583 395 C 261.813 395, 262 367.865, 262 334.700 L 262 274.399 213.350 245.950 C 186.592 230.302, 164.317 217.350, 163.850 217.167 C 163.382 216.983, 163 244.048, 163 277.309 M 343.970 243.588 C 318.961 258.211, 296.816 271.149, 294.758 272.338 L 291.015 274.500 291.008 334.750 C 291.003 367.887, 291.217 395, 291.483 395 C 291.936 395, 360.062 355.520, 381 343.124 L 390.500 337.500 390.758 277.250 C 390.900 244.113, 390.661 217, 390.228 217 C 389.794 217, 368.978 228.965, 343.970 243.588" stroke="none" fill="#fbfbfb" fill-rule="evenodd"/></svg>