<svg version="1.1" id="Layer_1" xmlns="http://www.w3.org/2000/svg" xmlns:xlink="http://www.w3.org/1999/xlink" x="0px" y="0px"
	 width="100%" viewBox="0 0 554 554" enable-background="new 0 0 554 554" xml:space="preserve">
<path fill="#FFFFFF" opacity="1.000000" stroke="none" 
	d="
M363.000000,555.000000 
	C242.027176,555.000000 121.554344,555.000000 1.040756,555.000000 
	C1.040756,370.402161 1.040756,185.804291 1.040756,1.103215 
	C185.556168,1.103215 370.112396,1.103215 554.834351,1.103215 
	C554.834351,185.666550 554.834351,370.333252 554.834351,555.000000 
	C491.137573,555.000000 427.318787,555.000000 363.000000,555.000000 
M205.738617,91.260376 
	C169.770172,112.669426 133.801727,134.078476 97.228333,155.847595 
	C115.547722,166.754623 133.199768,177.185928 150.740219,187.801590 
	C153.071518,189.212524 154.701675,189.187866 156.944260,187.834534 
	C173.255920,177.991028 189.647736,168.280472 205.989975,158.487427 
	C228.613907,144.930130 251.232498,131.363647 273.804901,117.720856 
	C276.167542,116.292862 277.994843,116.172684 280.461029,117.656746 
	C302.477356,130.905502 324.594238,143.986984 346.646545,157.176208 
	C363.287292,167.128876 379.897614,177.132980 396.468811,187.200928 
	C399.245331,188.887833 401.424774,189.366272 404.552185,187.415833 
	C415.813171,180.392822 427.341125,173.798752 438.746704,167.006409 
	C444.663483,163.482773 450.535004,159.883102 456.717529,156.141937 
	C455.705902,155.210266 455.196503,154.551422 454.530731,154.155396 
	C430.584351,139.910828 406.605835,125.720207 382.669800,111.458313 
	C362.581787,99.489204 342.556824,87.414413 322.473785,75.436920 
	C308.521790,67.115959 294.487122,58.933113 280.568115,50.557747 
	C278.125397,49.087906 276.231201,48.952412 273.787811,50.533684 
	C268.787598,53.769623 263.592651,56.704662 258.477112,59.762287 
	C241.109665,70.143028 223.741898,80.523170 205.738617,91.260376 
M369.872192,381.381744 
	C344.821747,396.371185 319.799927,411.408905 294.685242,426.289917 
	C291.492828,428.181458 290.150818,430.274078 290.190918,434.097992 
	C290.391876,453.260498 290.281250,472.426270 290.291016,491.590881 
	C290.291565,492.652954 290.389709,493.714966 290.473724,495.407349 
	C294.751465,492.870300 298.422791,490.699310 302.087982,488.518005 
	C329.431885,472.244720 356.799011,456.010284 384.110779,439.683197 
	C411.298309,423.430359 438.366669,406.976685 465.655487,390.896515 
	C469.648499,388.543579 470.931702,386.090851 470.923645,381.577942 
	C470.804871,315.085541 470.882294,248.592789 470.903046,182.100128 
	C470.903320,181.221436 470.773102,180.342712 470.667816,179.007767 
	C452.331512,189.932709 434.501465,200.473373 416.815002,211.249649 
	C415.389465,212.118240 414.281464,214.567123 414.177155,216.349060 
	C413.846497,221.995499 414.066254,227.673889 414.065735,233.339935 
	C414.062134,272.502411 414.085541,311.664948 413.960846,350.827057 
	C413.955017,352.658264 413.159851,355.357819 411.825134,356.179626 
	C398.141937,364.604401 384.270966,372.724274 369.872192,381.381744 
M240.562683,414.933838 
	C238.856201,413.916962 237.147919,412.903076 235.443466,411.882751 
	C204.722748,393.492920 174.029785,375.056213 143.231735,356.796783 
	C140.688980,355.289246 139.940292,353.765350 139.945343,350.976837 
	C140.025940,306.498108 139.925537,262.018860 140.137070,217.541031 
	C140.155884,213.584961 138.808060,211.656738 135.692398,209.839905 
	C124.965622,203.584869 114.371323,197.103088 103.701256,190.750183 
	C96.927406,186.717056 90.108688,182.759277 82.786194,178.460129 
	C82.786194,180.803268 82.785683,182.294022 82.786263,183.784760 
	C82.811966,249.586639 82.905357,315.388702 82.725677,381.190033 
	C82.712364,386.063110 84.025093,388.827972 88.396988,390.720825 
	C91.570793,392.094940 94.462006,394.132294 97.451080,395.920929 
	C124.459396,412.082642 151.461365,428.255005 178.465439,444.423828 
	C201.360519,458.132324 224.248383,471.852905 247.156769,485.539093 
	C252.581161,488.779816 258.075073,491.904144 263.947754,495.321014 
	C263.947754,473.816284 264.025818,453.159943 263.813690,432.506561 
	C263.794769,430.663910 262.343170,428.155487 260.784546,427.128174 
	C254.420593,422.933655 247.756454,419.194580 240.562683,414.933838 
M227.412643,176.976395 
	C211.837540,186.267670 196.262436,195.558945 180.298889,205.081940 
	C189.500076,210.568802 197.904938,215.556808 206.286606,220.583542 
	C229.046417,234.233307 251.769012,247.945831 274.618042,261.444427 
	C275.994934,262.257843 278.726379,262.077545 280.187103,261.241119 
	C290.397064,255.394791 300.430878,249.241211 310.535095,243.209534 
	C331.558655,230.659561 352.590912,218.124191 374.025299,205.340897 
	C373.092010,204.636276 372.632141,204.219849 372.110687,203.905487 
	C358.334351,195.600082 344.578125,187.260849 330.763245,179.019958 
	C313.812225,168.908264 296.840485,158.830017 279.775024,148.914017 
	C278.446899,148.142303 275.911041,148.076477 274.611847,148.836685 
	C259.014008,157.963501 243.543793,167.308411 227.412643,176.976395 
M290.354492,355.499786 
	C290.354492,369.348297 290.354492,383.196777 290.354492,397.736603 
	C322.054230,378.762268 352.865051,360.283752 383.736053,341.906311 
	C386.377258,340.333984 387.082245,338.462769 387.072540,335.492554 
	C386.962891,301.862244 387.004059,268.231476 387.004852,234.600815 
	C387.004883,232.851562 387.004852,231.102310 387.004852,228.783295 
	C382.673889,231.427887 378.917725,233.772125 375.113831,236.036148 
	C347.916534,252.223587 320.677368,268.341522 293.583862,284.700714 
	C291.927765,285.700653 290.505493,288.559998 290.484833,290.569702 
	C290.265900,311.877930 290.353363,333.189270 290.354492,355.499786 
M233.252289,379.210266 
	C243.262375,385.249359 253.272446,391.288422 263.951172,397.730896 
	C263.951172,395.183807 263.951447,393.414459 263.951111,391.645111 
	C263.944916,358.666595 263.813263,325.687073 264.069977,292.710602 
	C264.107758,287.858948 262.462067,285.402527 258.459564,283.066437 
	C240.714066,272.709106 223.170471,262.006409 205.526108,251.475128 
	C192.911896,243.946152 180.253693,236.490891 167.345886,228.843216 
	C167.183548,229.779999 167.041016,230.218765 167.040939,230.657562 
	C167.033997,265.801361 166.988388,300.945435 167.183640,336.088165 
	C167.193756,337.910370 168.828308,340.436554 170.446304,341.428711 
	C191.071060,354.076141 211.831192,366.502777 233.252289,379.210266 
z"/>
<path fill="#030303" opacity="1.000000" stroke="none" 
	d="
M206.056442,91.081963 
	C223.741898,80.523170 241.109665,70.143028 258.477112,59.762287 
	C263.592651,56.704662 268.787598,53.769623 273.787811,50.533684 
	C276.231201,48.952412 278.125397,49.087906 280.568115,50.557747 
	C294.487122,58.933113 308.521790,67.115959 322.473785,75.436920 
	C342.556824,87.414413 362.581787,99.489204 382.669800,111.458313 
	C406.605835,125.720207 430.584351,139.910828 454.530731,154.155396 
	C455.196503,154.551422 455.705902,155.210266 456.717529,156.141937 
	C450.535004,159.883102 444.663483,163.482773 438.746704,167.006409 
	C427.341125,173.798752 415.813171,180.392822 404.552185,187.415833 
	C401.424774,189.366272 399.245331,188.887833 396.468811,187.200928 
	C379.897614,177.132980 363.287292,167.128876 346.646545,157.176208 
	C324.594238,143.986984 302.477356,130.905502 280.461029,117.656746 
	C277.994843,116.172684 276.167542,116.292862 273.804901,117.720856 
	C251.232498,131.363647 228.613907,144.930130 205.989975,158.487427 
	C189.647736,168.280472 173.255920,177.991028 156.944260,187.834534 
	C154.701675,189.187866 153.071518,189.212524 150.740219,187.801590 
	C133.199768,177.185928 115.547722,166.754623 97.228333,155.847595 
	C133.801727,134.078476 169.770172,112.669426 206.056442,91.081963 
z"/>
<path fill="#030303" opacity="1.000000" stroke="none" 
	d="
M370.162323,381.155518 
	C384.270966,372.724274 398.141937,364.604401 411.825134,356.179626 
	C413.159851,355.357819 413.955017,352.658264 413.960846,350.827057 
	C414.085541,311.664948 414.062134,272.502411 414.065735,233.339935 
	C414.066254,227.673889 413.846497,221.995499 414.177155,216.349060 
	C414.281464,214.567123 415.389465,212.118240 416.815002,211.249649 
	C434.501465,200.473373 452.331512,189.932709 470.667816,179.007767 
	C470.773102,180.342712 470.903320,181.221436 470.903046,182.100128 
	C470.882294,248.592789 470.804871,315.085541 470.923645,381.577942 
	C470.931702,386.090851 469.648499,388.543579 465.655487,390.896515 
	C438.366669,406.976685 411.298309,423.430359 384.110779,439.683197 
	C356.799011,456.010284 329.431885,472.244720 302.087982,488.518005 
	C298.422791,490.699310 294.751465,492.870300 290.473724,495.407349 
	C290.389709,493.714966 290.291565,492.652954 290.291016,491.590881 
	C290.281250,472.426270 290.391876,453.260498 290.190918,434.097992 
	C290.150818,430.274078 291.492828,428.181458 294.685242,426.289917 
	C319.799927,411.408905 344.821747,396.371185 370.162323,381.155518 
z"/>
<path fill="#020202" opacity="1.000000" stroke="none" 
	d="
M240.882782,415.110779 
	C247.756454,419.194580 254.420593,422.933655 260.784546,427.128174 
	C262.343170,428.155487 263.794769,430.663910 263.813690,432.506561 
	C264.025818,453.159943 263.947754,473.816284 263.947754,495.321014 
	C258.075073,491.904144 252.581161,488.779816 247.156769,485.539093 
	C224.248383,471.852905 201.360519,458.132324 178.465439,444.423828 
	C151.461365,428.255005 124.459396,412.082642 97.451080,395.920929 
	C94.462006,394.132294 91.570793,392.094940 88.396988,390.720825 
	C84.025093,388.827972 82.712364,386.063110 82.725677,381.190033 
	C82.905357,315.388702 82.811966,249.586639 82.786263,183.784760 
	C82.785683,182.294022 82.786194,180.803268 82.786194,178.460129 
	C90.108688,182.759277 96.927406,186.717056 103.701256,190.750183 
	C114.371323,197.103088 124.965622,203.584869 135.692398,209.839905 
	C138.808060,211.656738 140.155884,213.584961 140.137070,217.541031 
	C139.925537,262.018860 140.025940,306.498108 139.945343,350.976837 
	C139.940292,353.765350 140.688980,355.289246 143.231735,356.796783 
	C174.029785,375.056213 204.722748,393.492920 235.443466,411.882751 
	C237.147919,412.903076 238.856201,413.916962 240.882782,415.110779 
z"/>
<path fill="#030303" opacity="1.000000" stroke="none" 
	d="
M227.726440,176.786377 
	C243.543793,167.308411 259.014008,157.963501 274.611847,148.836685 
	C275.911041,148.076477 278.446899,148.142303 279.775024,148.914017 
	C296.840485,158.830017 313.812225,168.908264 330.763245,179.019958 
	C344.578125,187.260849 358.334351,195.600082 372.110687,203.905487 
	C372.632141,204.219849 373.092010,204.636276 374.025299,205.340897 
	C352.590912,218.124191 331.558655,230.659561 310.535095,243.209534 
	C300.430878,249.241211 290.397064,255.394791 280.187103,261.241119 
	C278.726379,262.077545 275.994934,262.257843 274.618042,261.444427 
	C251.769012,247.945831 229.046417,234.233307 206.286606,220.583542 
	C197.904938,215.556808 189.500076,210.568802 180.298889,205.081940 
	C196.262436,195.558945 211.837540,186.267670 227.726440,176.786377 
z"/>
<path fill="#030303" opacity="1.000000" stroke="none" 
	d="
M290.355469,354.999756 
	C290.353363,333.189270 290.265900,311.877930 290.484833,290.569702 
	C290.505493,288.559998 291.927765,285.700653 293.583862,284.700714 
	C320.677368,268.341522 347.916534,252.223587 375.113831,236.036148 
	C378.917725,233.772125 382.673889,231.427887 387.004852,228.783295 
	C387.004852,231.102310 387.004883,232.851562 387.004852,234.600815 
	C387.004059,268.231476 386.962891,301.862244 387.072540,335.492554 
	C387.082245,338.462769 386.377258,340.333984 383.736053,341.906311 
	C352.865051,360.283752 322.054230,378.762268 290.354492,397.736603 
	C290.354492,383.196777 290.354492,369.348297 290.355469,354.999756 
z"/>
<path fill="#030303" opacity="1.000000" stroke="none" 
	d="
M232.904602,379.097900 
	C211.831192,366.502777 191.071060,354.076141 170.446304,341.428711 
	C168.828308,340.436554 167.193756,337.910370 167.183640,336.088165 
	C166.988388,300.945435 167.033997,265.801361 167.040939,230.657562 
	C167.041016,230.218765 167.183548,229.779999 167.345886,228.843216 
	C180.253693,236.490891 192.911896,243.946152 205.526108,251.475128 
	C223.170471,262.006409 240.714066,272.709106 258.459564,283.066437 
	C262.462067,285.402527 264.107758,287.858948 264.069977,292.710602 
	C263.813263,325.687073 263.944916,358.666595 263.951111,391.645111 
	C263.951447,393.414459 263.951172,395.183807 263.951172,397.730896 
	C253.272446,391.288422 243.262375,385.249359 232.904602,379.097900 
z"/>
</svg>