<svg version="1.1" id="Layer_1" xmlns="http://www.w3.org/2000/svg" xmlns:xlink="http://www.w3.org/1999/xlink" x="0px" y="0px"
	 width="100%" viewBox="0 0 554 554" enable-background="new 0 0 554 554" xml:space="preserve">
<path fill="#FEFEFE" opacity="1.000000" stroke="none" 
	d="
M300.000000,555.000000 
	C200.022430,555.000000 100.544868,555.000000 1.033653,555.000000 
	C1.033653,370.397400 1.033653,185.794815 1.033653,1.096113 
	C185.560913,1.096113 370.121887,1.096113 554.841431,1.096113 
	C554.841431,185.666565 554.841431,370.333252 554.841431,555.000000 
	C470.128143,555.000000 385.314056,555.000000 300.000000,555.000000 
M260.031372,426.718384 
	C258.327332,425.679260 256.640625,424.610382 254.916718,423.605347 
	C217.267212,401.655090 179.637741,379.670197 141.918182,357.840973 
	C138.646988,355.947815 137.377655,354.004028 137.393723,350.085114 
	C137.586929,302.928253 137.468552,255.770035 137.686371,208.613358 
	C137.710663,203.354034 136.230988,200.365112 131.496094,197.710190 
	C113.654861,187.706451 96.114258,177.166809 78.444435,166.856369 
	C77.534767,166.325577 76.470718,166.059372 75.119476,165.529068 
	C75.119476,166.864838 75.118881,167.674622 75.119560,168.484390 
	C75.177757,238.305069 75.243576,308.125732 75.284660,377.946411 
	C75.289703,386.519836 78.877327,392.652039 86.424026,397.072876 
	C144.267029,430.957367 202.010468,465.011841 259.789124,499.006195 
	C260.581329,499.472290 261.429291,499.843628 262.855957,500.564972 
	C262.855957,476.789307 262.887299,453.695282 262.765625,430.602051 
	C262.759369,429.416351 261.441071,428.237579 260.031372,426.718384 
M417.988953,336.499054 
	C418.000549,341.164856 417.733582,345.853516 418.114075,350.489044 
	C418.405151,354.034912 416.977905,355.703430 414.038879,357.405273 
	C374.742279,380.160370 335.553925,403.102356 296.250610,425.845795 
	C292.931488,427.766418 291.770874,429.819794 291.810730,433.664825 
	C292.026672,454.492645 291.905975,475.323944 291.923431,496.154022 
	C291.924561,497.517822 292.109863,498.881500 292.211823,500.276917 
	C292.908264,500.168701 293.088318,500.188141 293.213745,500.114502 
	C352.312683,465.413544 411.403229,430.698303 470.511566,396.013306 
	C475.591492,393.032379 478.727448,388.832886 479.357452,382.926056 
	C479.639160,380.284576 479.909821,377.624756 479.911835,374.973053 
	C479.963654,306.317139 479.980804,237.661209 479.987671,169.005264 
	C479.987762,167.962418 479.783630,166.919525 479.615143,165.305573 
	C459.857849,176.867004 440.688110,188.175110 421.396118,199.270615 
	C418.679138,200.833252 417.935150,202.517410 417.941833,205.519424 
	C418.038330,248.845886 417.996521,292.172668 417.988953,336.499054 
M376.407135,163.073364 
	C384.698181,168.003052 392.930786,173.036774 401.338409,177.758926 
	C402.722412,178.536255 405.269989,178.643372 406.611755,177.882355 
	C424.322937,167.837265 441.914337,157.581024 459.863098,147.188049 
	C459.071716,146.597321 458.600006,146.173386 458.065033,145.856110 
	C398.835297,110.730919 339.583557,75.642715 280.420593,40.405499 
	C277.625122,38.740532 275.961395,39.624485 273.757446,40.936848 
	C216.027344,75.312843 158.277420,109.655518 100.537262,144.014633 
	C98.941650,144.964142 97.416161,146.031464 95.486496,147.285202 
	C113.327522,157.590591 130.510132,167.405899 147.549301,177.464188 
	C150.445694,179.173904 152.399582,178.851624 155.130051,177.235641 
	C194.779739,153.769363 234.506256,130.432968 274.195282,107.033051 
	C276.406250,105.729485 278.033081,104.995506 280.816864,106.655098 
	C312.387695,125.476631 344.098053,144.064117 376.407135,163.073364 
M291.941101,368.500000 
	C291.941101,377.581024 291.941101,386.662048 291.941101,396.347595 
	C293.265717,395.709595 294.002045,395.414001 294.680908,395.019501 
	C326.022980,376.804688 357.334320,358.536591 388.742859,340.437195 
	C391.474487,338.863068 391.723419,336.950226 391.719299,334.324493 
	C391.669434,302.508636 391.685059,270.692688 391.683777,238.876740 
	C391.683502,231.972610 391.683746,225.068466 391.683746,217.613251 
	C390.328705,218.278183 389.454865,218.641541 388.644653,219.113998 
	C357.331635,237.373199 325.999908,255.600800 294.791779,274.037659 
	C293.289673,274.925079 292.096466,277.663208 292.085144,279.547516 
	C291.908417,308.864227 291.950714,338.182281 291.941101,368.500000 
M201.684631,360.819427 
	C221.889709,372.548187 242.094788,384.276978 262.421112,396.076141 
	C262.670288,395.264343 262.833191,394.981171 262.833405,394.697906 
	C262.860107,356.227234 262.827850,317.756378 262.977234,279.286224 
	C262.989532,276.117035 261.803406,274.627441 259.257660,273.149261 
	C234.816711,258.957520 210.450012,244.637955 186.050751,230.374344 
	C178.813354,226.143417 171.540298,221.973495 164.102325,217.670761 
	C163.894531,218.676910 163.768692,219.001465 163.768829,219.325958 
	C163.785034,257.963287 163.846939,296.600708 163.759201,335.237762 
	C163.752884,338.009827 164.712006,339.333649 166.999908,340.635620 
	C178.412994,347.130524 189.719910,353.812012 201.684631,360.819427 
M287.612366,247.092926 
	C316.885162,230.059479 346.157928,213.026016 376.075897,195.617142 
	C343.432465,176.695343 311.539154,158.167313 279.544830,139.815414 
	C278.286285,139.093521 275.747162,139.502686 274.337646,140.312454 
	C256.178558,150.745071 238.114670,161.343475 220.030411,171.906265 
	C206.724045,179.678360 193.423080,187.459747 179.669586,195.500137 
	C182.308472,197.113754 184.401901,198.445221 186.542908,199.695206 
	C213.818832,215.620087 241.290771,231.222931 268.254181,247.660049 
	C275.302795,251.956924 280.776764,252.999969 287.612366,247.092926 
z"/>
<path fill="#040505" opacity="1.000000" stroke="none" 
	d="
M260.382507,426.886963 
	C261.441071,428.237579 262.759369,429.416351 262.765625,430.602051 
	C262.887299,453.695282 262.855957,476.789307 262.855957,500.564972 
	C261.429291,499.843628 260.581329,499.472290 259.789124,499.006195 
	C202.010468,465.011841 144.267029,430.957367 86.424026,397.072876 
	C78.877327,392.652039 75.289703,386.519836 75.284660,377.946411 
	C75.243576,308.125732 75.177757,238.305069 75.119560,168.484390 
	C75.118881,167.674622 75.119476,166.864838 75.119476,165.529068 
	C76.470718,166.059372 77.534767,166.325577 78.444435,166.856369 
	C96.114258,177.166809 113.654861,187.706451 131.496094,197.710190 
	C136.230988,200.365112 137.710663,203.354034 137.686371,208.613358 
	C137.468552,255.770035 137.586929,302.928253 137.393723,350.085114 
	C137.377655,354.004028 138.646988,355.947815 141.918182,357.840973 
	C179.637741,379.670197 217.267212,401.655090 254.916718,423.605347 
	C256.640625,424.610382 258.327332,425.679260 260.382507,426.886963 
z"/>
<path fill="#040404" opacity="1.000000" stroke="none" 
	d="
M417.988403,335.999207 
	C417.996521,292.172668 418.038330,248.845886 417.941833,205.519424 
	C417.935150,202.517410 418.679138,200.833252 421.396118,199.270615 
	C440.688110,188.175110 459.857849,176.867004 479.615143,165.305573 
	C479.783630,166.919525 479.987762,167.962418 479.987671,169.005264 
	C479.980804,237.661209 479.963654,306.317139 479.911835,374.973053 
	C479.909821,377.624756 479.639160,380.284576 479.357452,382.926056 
	C478.727448,388.832886 475.591492,393.032379 470.511566,396.013306 
	C411.403229,430.698303 352.312683,465.413544 293.213745,500.114502 
	C293.088318,500.188141 292.908264,500.168701 292.211823,500.276917 
	C292.109863,498.881500 291.924561,497.517822 291.923431,496.154022 
	C291.905975,475.323944 292.026672,454.492645 291.810730,433.664825 
	C291.770874,429.819794 292.931488,427.766418 296.250610,425.845795 
	C335.553925,403.102356 374.742279,380.160370 414.038879,357.405273 
	C416.977905,355.703430 418.405151,354.034912 418.114075,350.489044 
	C417.733582,345.853516 418.000549,341.164856 417.988403,335.999207 
z"/>
<path fill="#050505" opacity="1.000000" stroke="none" 
	d="
M376.089111,162.893814 
	C344.098053,144.064117 312.387695,125.476631 280.816864,106.655098 
	C278.033081,104.995506 276.406250,105.729485 274.195282,107.033051 
	C234.506256,130.432968 194.779739,153.769363 155.130051,177.235641 
	C152.399582,178.851624 150.445694,179.173904 147.549301,177.464188 
	C130.510132,167.405899 113.327522,157.590591 95.486496,147.285202 
	C97.416161,146.031464 98.941650,144.964142 100.537262,144.014633 
	C158.277420,109.655518 216.027344,75.312843 273.757446,40.936848 
	C275.961395,39.624485 277.625122,38.740532 280.420593,40.405499 
	C339.583557,75.642715 398.835297,110.730919 458.065033,145.856110 
	C458.600006,146.173386 459.071716,146.597321 459.863098,147.188049 
	C441.914337,157.581024 424.322937,167.837265 406.611755,177.882355 
	C405.269989,178.643372 402.722412,178.536255 401.338409,177.758926 
	C392.930786,173.036774 384.698181,168.003052 376.089111,162.893814 
z"/>
<path fill="#030404" opacity="1.000000" stroke="none" 
	d="
M291.941772,368.000000 
	C291.950714,338.182281 291.908417,308.864227 292.085144,279.547516 
	C292.096466,277.663208 293.289673,274.925079 294.791779,274.037659 
	C325.999908,255.600800 357.331635,237.373199 388.644653,219.113998 
	C389.454865,218.641541 390.328705,218.278183 391.683746,217.613251 
	C391.683746,225.068466 391.683502,231.972610 391.683777,238.876740 
	C391.685059,270.692688 391.669434,302.508636 391.719299,334.324493 
	C391.723419,336.950226 391.474487,338.863068 388.742859,340.437195 
	C357.334320,358.536591 326.022980,376.804688 294.680908,395.019501 
	C294.002045,395.414001 293.265717,395.709595 291.941101,396.347595 
	C291.941101,386.662048 291.941101,377.581024 291.941772,368.000000 
z"/>
<path fill="#030303" opacity="1.000000" stroke="none" 
	d="
M201.374420,360.623627 
	C189.719910,353.812012 178.412994,347.130524 166.999908,340.635620 
	C164.712006,339.333649 163.752884,338.009827 163.759201,335.237762 
	C163.846939,296.600708 163.785034,257.963287 163.768829,219.325958 
	C163.768692,219.001465 163.894531,218.676910 164.102325,217.670761 
	C171.540298,221.973495 178.813354,226.143417 186.050751,230.374344 
	C210.450012,244.637955 234.816711,258.957520 259.257660,273.149261 
	C261.803406,274.627441 262.989532,276.117035 262.977234,279.286224 
	C262.827850,317.756378 262.860107,356.227234 262.833405,394.697906 
	C262.833191,394.981171 262.670288,395.264343 262.421112,396.076141 
	C242.094788,384.276978 221.889709,372.548187 201.374420,360.623627 
z"/>
<path fill="#030304" opacity="1.000000" stroke="none" 
	d="
M287.293945,247.273071 
	C280.776764,252.999969 275.302795,251.956924 268.254181,247.660049 
	C241.290771,231.222931 213.818832,215.620087 186.542908,199.695206 
	C184.401901,198.445221 182.308472,197.113754 179.669586,195.500137 
	C193.423080,187.459747 206.724045,179.678360 220.030411,171.906265 
	C238.114670,161.343475 256.178558,150.745071 274.337646,140.312454 
	C275.747162,139.502686 278.286285,139.093521 279.544830,139.815414 
	C311.539154,158.167313 343.432465,176.695343 376.075897,195.617142 
	C346.157928,213.026016 316.885162,230.059479 287.293945,247.273071 
z"/>
</svg>