<?xml version="1.0" standalone="no"?>
<!DOCTYPE svg PUBLIC "-//W3C//DTD SVG 20010904//EN"
 "http://www.w3.org/TR/2001/REC-SVG-20010904/DTD/svg10.dtd">
<svg version="1.0" xmlns="http://www.w3.org/2000/svg"
 width="390.000000pt" height="446.000000pt" viewBox="0 0 390.000000 446.000000"
 preserveAspectRatio="xMidYMid meet">

<g transform="translate(0.000000,446.000000) scale(0.100000,-0.100000)"
fill="#000000" stroke="none">
<path d="M1760 4350 c-102 -60 -198 -118 -215 -129 -16 -10 -82 -49 -145 -86
-63 -38 -164 -98 -225 -135 -60 -37 -132 -80 -160 -95 -27 -15 -66 -38 -85
-50 -19 -12 -159 -96 -310 -185 -151 -90 -317 -188 -367 -219 -51 -30 -93 -57
-93 -60 1 -7 535 -325 553 -329 8 -2 45 16 83 39 38 23 86 52 107 63 20 12
264 157 541 324 500 300 505 303 533 289 27 -14 353 -208 438 -260 22 -13 203
-123 403 -242 l363 -218 32 15 c55 27 522 309 525 317 2 5 -131 88 -295 186
-164 98 -314 187 -333 199 -49 29 -60 36 -137 80 -37 22 -79 47 -93 56 -14 10
-149 91 -300 180 -151 90 -313 186 -360 214 -47 28 -92 56 -102 61 -10 6 -50
29 -89 53 -39 23 -75 42 -78 42 -4 0 -90 -49 -191 -110z"/>
<path d="M1888 3441 c-192 -114 -341 -203 -488 -292 -91 -55 -220 -132 -287
-172 -67 -39 -123 -74 -123 -77 0 -5 44 -33 317 -196 101 -60 218 -130 260
-156 43 -26 110 -65 148 -88 39 -22 107 -63 152 -91 73 -44 86 -48 105 -38 27
14 445 263 603 359 61 37 162 97 225 135 63 37 116 69 118 70 5 4 -72 51 -348
215 -151 90 -291 173 -310 185 -19 12 -97 58 -172 103 l-137 80 -63 -37z"/>
<path d="M10 2118 l0 -1043 143 -84 c78 -46 158 -93 177 -105 19 -12 46 -28
60 -36 36 -19 268 -159 310 -185 72 -46 1111 -665 1116 -665 2 0 4 148 4 329
l0 329 -37 24 c-21 13 -46 28 -55 33 -33 18 -532 318 -568 340 -19 13 -87 53
-150 90 -63 37 -131 78 -150 90 -49 31 -175 106 -233 139 l-47 27 0 713 0 713
-47 27 c-27 14 -76 44 -109 65 -34 21 -75 45 -90 53 -16 8 -93 54 -171 101
-78 48 -144 87 -147 87 -3 0 -6 -469 -6 -1042z"/>
<path d="M3627 3005 c-142 -85 -261 -155 -266 -155 -4 0 -15 -8 -24 -18 -15
-17 -17 -85 -19 -728 l-3 -709 -103 -60 c-56 -33 -150 -89 -210 -124 -59 -36
-174 -105 -257 -154 -82 -49 -166 -99 -185 -112 -19 -12 -120 -73 -225 -135
-104 -62 -205 -123 -222 -134 l-33 -21 0 -327 c0 -181 3 -328 6 -328 5 0 264
151 334 195 19 13 87 53 150 90 63 38 165 98 225 135 61 36 256 153 435 260
179 106 336 200 350 210 14 9 54 33 90 54 36 20 83 48 105 62 22 13 57 33 78
44 l37 20 0 1045 c0 575 -1 1045 -2 1045 -2 0 -119 -70 -261 -155z"/>
<path id="inner-face-1" d="M850 2111 c0 -450 2 -551 14 -560 7 -6 55 -36 107 -67 52 -31 110
-66 129 -79 42 -27 423 -255 500 -300 30 -17 92 -55 138 -83 l82 -52 0 557 0
558 -77 47 c-307 184 -840 501 -864 514 l-29 15 0 -550z"/>
<path id="inner-face-2" d="M2895 2570 c-82 -49 -195 -116 -250 -150 -55 -33 -203 -122 -330
-198 l-230 -137 -3 -553 c-1 -303 0 -552 3 -552 9 0 67 31 95 50 14 10 215
131 448 270 l422 252 0 554 c0 305 -1 554 -2 554 -2 -1 -70 -41 -153 -90z"/>
<path id="inner-face-3" d="M1888 3441 c-192 -114 -341 -203 -488 -292 -91 -55 -220 -132 -287
-172 -67 -39 -123 -74 -123 -77 0 -5 44 -33 317 -196 101 -60 218 -130 260
-156 43 -26 110 -65 148 -88 39 -22 107 -63 152 -91 73 -44 86 -48 105 -38 27
14 445 263 603 359 61 37 162 97 225 135 63 37 116 69 118 70 5 4 -72 51 -348
215 -151 90 -291 173 -310 185 -19 12 -97 58 -172 103 l-137 80 -63 -37z"/>
</g>
</svg>
