<?xml version="1.0" standalone="no"?>
<!DOCTYPE svg PUBLIC "-//W3C//DTD SVG 20010904//EN"
 "http://www.w3.org/TR/2001/REC-SVG-20010904/DTD/svg10.dtd">
<svg version="1.0" xmlns="http://www.w3.org/2000/svg"
 width="2059.000000pt" height="642.000000pt" viewBox="0 0 2059.000000 642.000000"
 preserveAspectRatio="xMidYMid meet">

<g transform="translate(0.000000,642.000000) scale(0.100000,-0.100000)"
fill="#000000" stroke="none">
<path d="M2700 5360 c-102 -60 -198 -118 -215 -129 -16 -10 -82 -49 -145 -86
-63 -38 -164 -98 -225 -135 -60 -37 -132 -80 -160 -95 -27 -15 -66 -38 -85
-50 -19 -12 -159 -96 -310 -185 -151 -90 -317 -188 -367 -219 -51 -30 -93 -57
-93 -60 1 -7 535 -325 553 -329 8 -2 45 16 83 39 38 23 86 52 107 63 20 12
264 157 541 324 500 300 505 303 533 289 27 -14 353 -208 438 -260 22 -13 203
-123 403 -242 l363 -218 32 15 c55 27 522 309 525 317 2 5 -131 88 -295 186
-164 98 -314 187 -333 199 -49 29 -60 36 -137 80 -37 22 -79 47 -93 56 -14 10
-149 91 -300 180 -151 90 -313 186 -360 214 -47 28 -92 56 -102 61 -10 6 -50
29 -89 53 -39 23 -75 42 -78 42 -4 0 -90 -49 -191 -110z"/>
<path d="M12535 4529 c-80 -11 -216 -54 -290 -91 -220 -111 -372 -296 -436
-533 -18 -66 -22 -107 -22 -230 0 -166 17 -253 72 -372 87 -184 247 -337 442
-419 128 -53 220 -69 404 -68 155 1 180 4 286 31 124 33 231 78 322 136 l57
37 0 340 0 340 -175 0 -175 0 0 -244 0 -244 -47 -20 c-102 -42 -127 -47 -253
-47 -136 0 -185 11 -292 67 -231 121 -325 454 -203 713 132 278 539 373 815
190 36 -24 76 -55 89 -69 l24 -26 51 48 c28 26 85 78 126 116 l74 69 -64 60
c-121 110 -269 180 -449 211 -100 17 -256 19 -356 5z"/>
<path d="M5780 3675 l0 -835 650 0 650 0 0 155 0 155 -455 0 -455 0 0 195 0
195 390 0 390 0 0 150 0 150 -390 0 -390 0 0 180 0 180 440 0 439 0 3 91 3 92
331 -769 332 -769 193 0 194 0 350 809 350 809 3 -811 2 -812 650 0 650 0 0
155 0 155 -455 0 -455 0 0 195 0 195 390 0 390 0 0 150 0 150 -390 0 -390 0 0
180 0 180 440 0 440 0 0 155 0 155 -821 -2 -821 -3 -244 -565 c-134 -311 -249
-578 -256 -593 -13 -27 -15 -23 -87 145 -40 95 -154 363 -253 596 l-180 422
-819 0 -819 0 0 -835z"/>
<path d="M10280 3676 l0 -836 195 0 195 0 0 230 0 230 178 0 177 0 160 -230
160 -229 208 -1 208 0 -33 48 c-18 26 -102 146 -186 267 -85 120 -150 221
-145 222 5 2 37 20 72 41 164 96 261 278 261 487 0 288 -172 498 -472 577 -78
20 -110 22 -530 25 l-448 4 0 -835z m897 485 c134 -60 194 -211 146 -362 -23
-71 -81 -129 -159 -160 -54 -21 -78 -23 -276 -27 l-218 -4 0 292 0 291 228 -3
c214 -3 230 -4 279 -27z"/>
<path d="M13590 3676 l0 -836 195 0 195 0 0 230 0 230 178 0 177 0 160 -230
160 -229 208 -1 208 0 -33 48 c-18 26 -102 146 -186 267 -85 120 -150 221
-145 222 5 2 37 20 72 41 164 96 261 278 261 487 0 288 -172 498 -472 577 -78
20 -110 22 -530 25 l-448 4 0 -835z m897 485 c134 -60 194 -211 146 -362 -23
-71 -81 -129 -159 -160 -54 -21 -78 -23 -276 -27 l-218 -4 0 292 0 291 228 -3
c214 -3 230 -4 279 -27z"/>
<path d="M15190 3675 l0 -835 650 0 650 0 0 155 0 155 -455 0 -455 0 0 195 0
195 390 0 390 0 0 150 0 150 -390 0 -390 0 0 180 0 180 440 0 440 0 0 155 0
155 -635 0 -635 0 0 -835z"/>
<path d="M16640 3675 l0 -835 650 0 650 0 0 155 0 155 -455 0 -455 0 0 195 0
195 390 0 390 0 0 150 0 150 -390 0 -390 0 0 180 0 180 440 0 440 0 0 155 0
155 -635 0 -635 0 0 -835z"/>
<path d="M18110 3675 l0 -835 190 0 190 0 2 503 3 504 413 -504 414 -503 159
0 159 0 0 835 0 835 -190 0 -190 0 -2 -505 -3 -505 -413 505 -414 505 -159 0
-159 0 0 -835z"/>
<path d="M2828 4451 c-192 -114 -341 -203 -488 -292 -91 -55 -220 -132 -287
-172 -67 -39 -123 -74 -123 -77 0 -5 44 -33 317 -196 101 -60 218 -130 260
-156 43 -26 110 -65 148 -88 39 -22 107 -63 152 -91 73 -44 86 -48 105 -38 27
14 445 263 603 359 61 37 162 97 225 135 63 37 116 69 118 70 5 4 -72 51 -348
215 -151 90 -291 173 -310 185 -19 12 -97 58 -172 103 l-137 80 -63 -37z"/>
<path d="M950 3128 l0 -1043 143 -84 c78 -46 158 -93 177 -105 19 -12 46 -28
60 -36 36 -19 268 -159 310 -185 72 -46 1111 -665 1116 -665 2 0 4 148 4 329
l0 329 -37 24 c-21 13 -46 28 -55 33 -33 18 -532 318 -568 340 -19 13 -87 53
-150 90 -63 37 -131 78 -150 90 -49 31 -175 106 -232 139 l-48 27 0 713 0 713
-47 27 c-27 14 -76 44 -109 65 -34 21 -75 45 -90 53 -16 8 -93 54 -171 101
-78 48 -144 87 -147 87 -3 0 -6 -469 -6 -1042z"/>
<path d="M4567 4015 c-142 -85 -261 -155 -266 -155 -4 0 -15 -8 -24 -18 -15
-17 -17 -85 -19 -728 l-3 -709 -103 -60 c-56 -33 -150 -89 -210 -124 -59 -36
-174 -105 -257 -154 -82 -49 -166 -99 -185 -112 -19 -12 -120 -73 -225 -135
-104 -62 -205 -123 -222 -134 l-33 -21 0 -327 c0 -181 3 -328 6 -328 5 0 264
151 334 195 19 13 87 53 150 90 63 38 165 98 225 135 61 36 256 153 435 260
179 106 336 200 350 210 14 9 54 33 90 54 36 20 83 48 105 62 22 13 57 33 78
44 l37 20 0 1045 c0 575 -1 1045 -2 1045 -2 0 -119 -70 -261 -155z"/>
<path d="M1790 3121 c0 -450 2 -551 14 -560 7 -6 55 -36 107 -67 52 -31 110
-66 129 -79 42 -27 423 -255 500 -300 30 -17 92 -55 138 -83 l82 -52 0 557 0
558 -77 47 c-307 184 -840 501 -864 514 l-29 15 0 -550z"/>
<path d="M3835 3580 c-82 -49 -195 -116 -250 -150 -55 -33 -203 -122 -330
-198 l-230 -137 -3 -553 c-1 -303 0 -552 3 -552 9 0 67 31 95 50 14 10 215
131 448 270 l422 252 0 554 c0 305 -1 554 -2 554 -2 -1 -70 -41 -153 -90z"/>
<path d="M5987 2580 c-106 -27 -167 -97 -167 -191 0 -81 53 -138 158 -168 37
-11 92 -27 123 -35 73 -20 109 -49 109 -87 0 -50 -62 -89 -145 -89 -45 0 -144
28 -181 50 -17 11 -34 20 -37 20 -3 0 -13 -21 -23 -46 -17 -45 -17 -47 1 -60
66 -49 227 -75 327 -55 168 35 236 215 119 314 -30 25 -68 39 -222 81 -73 20
-109 49 -109 87 0 51 62 89 147 89 27 0 115 -24 164 -44 12 -5 20 3 32 36 10
24 17 47 17 50 0 4 -26 16 -57 28 -65 24 -198 35 -256 20z"/>
<path d="M7367 2580 c-106 -27 -167 -97 -167 -191 0 -81 53 -138 158 -168 37
-11 92 -27 123 -35 73 -20 109 -49 109 -87 0 -50 -62 -89 -145 -89 -45 0 -144
28 -181 50 -17 11 -34 20 -37 20 -3 0 -13 -21 -23 -46 -17 -45 -17 -47 1 -60
66 -49 227 -75 327 -55 168 35 236 215 119 314 -30 25 -68 39 -222 81 -73 20
-109 49 -109 87 0 51 62 89 147 89 27 0 115 -24 164 -44 12 -5 20 3 32 36 10
24 17 47 17 50 0 4 -26 16 -57 28 -65 24 -198 35 -256 20z"/>
<path d="M10427 2580 c-106 -27 -167 -97 -167 -191 0 -81 53 -138 158 -168 37
-11 92 -27 123 -35 73 -20 109 -49 109 -87 0 -50 -62 -89 -145 -89 -45 0 -144
28 -181 50 -17 11 -34 20 -37 20 -3 0 -13 -21 -23 -46 -17 -45 -17 -47 1 -60
66 -49 227 -75 327 -55 168 35 236 215 119 314 -30 25 -68 39 -222 81 -73 20
-109 49 -109 87 0 51 62 89 147 89 27 0 115 -24 164 -44 12 -5 20 3 32 36 10
24 17 47 17 50 0 4 -26 16 -57 28 -65 24 -198 35 -256 20z"/>
<path d="M6560 2367 l130 -214 0 -117 0 -116 60 0 60 0 0 115 0 114 117 193
c64 106 123 203 131 216 14 22 14 22 -46 22 l-61 0 -88 -146 c-48 -80 -93
-152 -99 -161 -8 -12 -29 16 -105 144 l-95 158 -67 3 -67 3 130 -214z"/>
<path d="M7830 2530 l0 -50 110 0 110 0 0 -280 0 -280 60 0 60 0 2 278 3 277
108 3 107 3 0 49 0 50 -280 0 -280 0 0 -50z"/>
<path d="M8580 2250 l0 -330 245 0 245 0 0 50 0 50 -185 0 -185 0 0 95 0 95
160 0 160 0 0 50 0 50 -160 0 -160 0 0 85 0 85 180 0 180 0 0 50 0 50 -240 0
-240 0 0 -330z"/>
<path d="M9300 2251 l0 -331 60 0 60 0 2 210 3 210 104 -171 c101 -166 104
-170 135 -167 28 3 38 15 127 166 53 90 102 169 108 175 8 8 11 -46 11 -206
l0 -217 55 0 55 0 0 331 0 330 -51 -3 -51 -3 -124 -210 c-68 -115 -127 -211
-131 -212 -4 -1 -64 93 -133 210 l-125 212 -53 3 -52 3 0 -330z"/>
</g>
</svg>
