<?xml version="1.0" standalone="no"?>
<!DOCTYPE svg PUBLIC "-//W3C//DTD SVG 20010904//EN"
 "http://www.w3.org/TR/2001/REC-SVG-20010904/DTD/svg10.dtd">
<svg version="1.0" xmlns="http://www.w3.org/2000/svg"
 width="1296.000000pt" height="233.000000pt" viewBox="0 0 1296.000000 233.000000"
 preserveAspectRatio="xMidYMid meet">

<g transform="translate(0.000000,233.000000) scale(0.100000,-0.100000)"
fill="#000000" stroke="none">
<path d="M833 2207 c-111 -67 -319 -192 -462 -277 -143 -85 -261 -157 -260
-160 0 -7 276 -170 289 -170 6 0 151 84 323 186 171 103 315 189 319 191 4 2
149 -82 324 -187 174 -104 321 -190 327 -190 12 0 287 162 287 170 0 3 -132
84 -292 180 -161 96 -370 221 -465 277 -94 57 -175 103 -180 102 -4 0 -99 -55
-210 -122z"/>
<path d="M787 1662 l-248 -149 248 -148 c136 -81 251 -150 255 -152 7 -4 471
269 495 291 10 9 -45 46 -229 156 -132 80 -248 146 -257 148 -9 1 -128 -65
-264 -146z"/>
<path d="M7386 1765 c-255 -49 -456 -207 -530 -417 l-23 -67 -7 69 c-14 153
-93 268 -230 335 -135 66 -152 68 -558 73 l-368 4 0 -621 0 -621 130 0 130 0
0 180 0 180 183 0 182 0 140 -180 140 -180 138 0 139 0 -30 37 c-217 279 -283
365 -280 367 2 2 30 17 63 35 95 50 162 121 194 207 l18 46 5 -99 c20 -346
290 -588 683 -610 183 -10 390 35 523 114 l62 37 0 248 0 248 -120 0 -120 0 0
-194 0 -194 -57 -21 c-175 -63 -377 -47 -515 41 -70 44 -143 129 -169 196 -49
129 -33 289 42 401 142 213 496 265 732 106 l68 -46 80 68 79 68 -46 43 c-54
50 -180 113 -274 137 -92 23 -304 29 -404 10z m-959 -234 c101 -45 151 -131
140 -240 -8 -79 -49 -139 -117 -173 -78 -40 -138 -48 -341 -48 l-179 0 0 246
0 245 223 -3 c208 -3 225 -4 274 -27z m400 -298 c-3 -10 -5 -4 -5 12 0 17 2
24 5 18 2 -7 2 -21 0 -30z"/>
<path d="M2240 1140 l0 -620 520 0 520 0 0 95 0 95 -390 0 -390 0 0 170 0 170
330 0 330 0 0 95 0 95 -330 0 -330 0 0 165 0 165 372 -2 372 -3 252 -520 252
-520 129 -3 128 -2 270 561 270 561 3 -561 2 -561 520 0 520 0 0 95 0 95 -390
0 -390 0 0 170 0 170 330 0 330 0 0 95 0 95 -330 0 -330 0 0 165 0 165 375 0
375 0 0 95 0 95 -607 0 -608 0 -229 -475 c-126 -262 -231 -474 -233 -472 -2 2
-105 215 -228 473 l-225 469 -595 3 -595 2 0 -620z"/>
<path d="M8230 1141 l0 -621 130 0 130 0 0 180 0 180 183 0 182 0 140 -180
140 -180 138 0 139 0 -30 38 c-217 278 -283 364 -280 366 2 2 31 18 65 35 116
62 191 161 214 286 34 183 -55 357 -225 440 -135 66 -152 68 -558 73 l-368 4
0 -621z m757 390 c101 -45 151 -131 140 -240 -8 -79 -49 -139 -117 -173 -78
-40 -138 -48 -341 -48 l-179 0 0 246 0 245 223 -3 c208 -3 225 -4 274 -27z"/>
<path d="M9470 1140 l0 -620 520 0 520 0 0 95 0 95 -390 0 -390 0 0 170 0 170
330 0 330 0 0 95 0 95 -330 0 -330 0 0 165 0 165 375 0 375 0 0 95 0 95 -505
0 -505 0 0 -620z"/>
<path d="M10580 1140 l0 -620 520 0 520 0 0 95 0 95 -390 0 -390 0 0 170 0
170 330 0 330 0 0 95 0 95 -330 0 -330 0 0 165 0 165 375 0 375 0 0 95 0 95
-505 0 -505 0 0 -620z"/>
<path d="M11710 1140 l0 -620 125 0 125 0 2 417 3 416 374 -416 374 -417 103
0 104 0 0 620 0 620 -125 0 -125 0 -2 -417 -3 -416 -374 416 -374 417 -103 0
-104 0 0 -620z"/>
<path d="M30 1103 l0 -548 43 -24 c23 -13 229 -136 458 -272 228 -136 423
-251 432 -255 16 -6 17 8 17 165 l0 170 -324 193 -325 193 -3 375 -3 374 -117
71 c-64 38 -130 78 -147 88 l-31 18 0 -548z"/>
<path d="M1910 1561 l-145 -88 -3 -374 -2 -374 -320 -190 -319 -190 -1 -172
c0 -95 2 -173 5 -173 3 0 180 104 393 231 213 128 422 253 464 278 l77 46 1
548 c0 301 -1 547 -2 547 -2 -1 -68 -41 -148 -89z"/>
<path d="M472 1098 l3 -292 245 -148 c135 -81 248 -147 253 -148 4 0 7 129 7
288 l0 287 -192 115 c-106 63 -221 132 -256 152 l-62 37 2 -291z"/>
<path d="M1368 1238 l-248 -149 0 -290 0 -291 38 22 c20 12 133 79 249 148
l213 127 0 293 c0 160 -1 291 -2 291 -2 -1 -114 -68 -250 -151z"/>
</g>
</svg>
