<?xml version="1.0" standalone="no"?>
<!DOCTYPE svg PUBLIC "-//W3C//DTD SVG 20010904//EN"
 "http://www.w3.org/TR/2001/REC-SVG-20010904/DTD/svg10.dtd">
<svg version="1.0" xmlns="http://www.w3.org/2000/svg"
 width="1167.000000pt" height="233.000000pt" viewBox="0 0 1167.000000 233.000000"
 preserveAspectRatio="xMidYMid meet">

<g transform="translate(0.000000,233.000000) scale(0.100000,-0.100000)"
fill="#000000" stroke="none">
<path d="M813 2207 c-111 -67 -319 -192 -462 -277 -143 -85 -261 -157 -260
-160 0 -7 276 -170 289 -170 6 0 151 84 323 186 171 103 315 189 319 191 4 2
149 -82 324 -187 174 -104 321 -190 327 -190 12 0 287 162 287 170 0 3 -132
84 -292 180 -161 96 -370 221 -465 277 -94 57 -175 103 -180 102 -4 0 -99 -55
-210 -122z"/>
<path d="M767 1662 l-248 -149 248 -148 c136 -81 251 -150 255 -152 7 -4 471
269 495 291 10 9 -45 46 -229 156 -132 80 -248 146 -257 148 -9 1 -128 -65
-264 -146z"/>
<path d="M2520 1140 l0 -620 520 0 520 0 0 95 0 95 -390 0 -390 0 0 170 0 170
330 0 330 0 0 95 0 95 -330 0 -330 0 0 165 0 165 375 0 375 0 0 95 0 95 -505
0 -505 0 0 -620z"/>
<path d="M10 1103 l0 -548 43 -24 c23 -13 229 -136 458 -272 228 -136 423
-251 432 -255 16 -6 17 8 17 165 l0 170 -324 193 -325 193 -3 375 -3 374 -117
71 c-64 38 -130 78 -147 88 l-31 18 0 -548z"/>
<path d="M1890 1561 l-145 -88 -3 -374 -2 -374 -320 -190 -319 -190 -1 -172
c0 -95 2 -173 5 -173 3 0 180 104 393 231 213 128 422 253 464 278 l77 46 1
548 c0 301 -1 547 -2 547 -2 -1 -68 -41 -148 -89z"/>
<path d="M4974 1451 c-166 -45 -277 -132 -341 -266 -30 -64 -36 -90 -41 -163
-17 -313 245 -530 618 -509 151 9 264 47 345 119 l36 31 -67 68 c-68 68 -68
69 -89 49 -11 -10 -47 -31 -79 -46 -70 -32 -199 -43 -287 -25 -104 22 -206
105 -225 184 l-6 27 411 0 411 0 0 60 c0 222 -130 397 -349 467 -78 24 -254
27 -337 4z m311 -193 c69 -36 115 -90 135 -157 l9 -31 -299 0 -299 0 16 45
c20 61 87 127 154 154 78 31 213 25 284 -11z"/>
<path d="M6234 1455 c-75 -16 -133 -45 -184 -92 l-40 -35 0 66 0 66 -115 0
-115 0 0 -470 0 -470 125 0 125 0 0 263 c0 149 5 278 10 299 16 56 69 119 124
147 38 20 68 26 137 29 l89 4 0 104 0 104 -47 -1 c-27 0 -76 -7 -109 -14z"/>
<path d="M6810 1463 c-222 -37 -375 -166 -416 -351 -73 -327 238 -601 616
-543 79 12 198 61 226 92 30 34 37 23 31 -48 -8 -86 -45 -162 -95 -196 -116
-81 -374 -75 -555 12 l-77 37 -51 -78 c-28 -42 -48 -82 -44 -88 13 -21 131
-73 224 -98 84 -22 117 -25 266 -26 135 0 183 3 234 17 186 52 299 168 331
337 6 30 10 239 10 491 l0 439 -115 0 -115 0 0 -61 0 -61 -31 27 c-48 40 -124
75 -198 91 -62 13 -184 17 -241 7z m257 -198 c158 -47 235 -180 191 -329 -8
-26 -31 -60 -64 -93 -43 -43 -64 -55 -124 -74 -124 -37 -265 -14 -349 58 -135
115 -113 329 42 410 85 44 210 56 304 28z"/>
<path d="M8164 1455 c-75 -16 -133 -45 -184 -92 l-40 -35 0 66 0 66 -115 0
-115 0 0 -470 0 -470 125 0 125 0 0 263 c0 149 5 278 10 299 16 56 69 119 124
147 38 20 68 26 137 29 l89 4 0 104 0 104 -47 -1 c-27 0 -76 -7 -109 -14z"/>
<path d="M8704 1451 c-166 -45 -277 -132 -341 -266 -30 -64 -36 -90 -41 -163
-17 -313 245 -530 618 -509 151 9 264 47 345 119 l36 31 -67 68 c-68 68 -68
69 -89 49 -11 -10 -47 -31 -79 -46 -70 -32 -199 -43 -287 -25 -104 22 -206
105 -225 184 l-6 27 411 0 411 0 0 60 c0 222 -130 397 -349 467 -78 24 -254
27 -337 4z m311 -193 c69 -36 115 -90 135 -157 l9 -31 -299 0 -299 0 16 45
c20 61 87 127 154 154 78 31 213 25 284 -11z"/>
<path d="M9804 1451 c-166 -45 -277 -132 -341 -266 -30 -64 -36 -90 -41 -163
-17 -313 245 -530 618 -509 151 9 264 47 345 119 l36 31 -67 68 c-68 68 -68
69 -89 49 -11 -10 -47 -31 -79 -46 -70 -32 -199 -43 -287 -25 -104 22 -206
105 -225 184 l-6 27 411 0 411 0 0 60 c0 222 -130 397 -349 467 -78 24 -254
27 -337 4z m311 -193 c69 -36 115 -90 135 -157 l9 -31 -299 0 -299 0 16 45
c20 61 87 127 154 154 78 31 213 25 284 -11z"/>
<path d="M11054 1456 c-69 -16 -146 -53 -193 -91 l-31 -27 0 61 0 61 -115 0
-115 0 0 -470 0 -470 125 0 125 0 0 273 c0 306 5 339 64 399 104 107 311 114
414 15 56 -54 62 -95 62 -409 l0 -278 126 0 126 0 -4 318 c-4 270 -7 324 -22
367 -42 117 -119 196 -233 236 -76 27 -243 34 -329 15z"/>
<path d="M3555 1388 c19 -40 119 -251 223 -468 l189 -395 129 -2 129 -3 220
461 c121 254 222 465 223 470 2 5 -50 9 -115 9 l-118 0 -165 -344 c-91 -189
-167 -343 -170 -341 -3 2 -77 157 -165 344 l-159 341 -127 0 -128 0 34 -72z"/>
<path d="M452 1098 l3 -292 245 -148 c135 -81 248 -147 253 -148 4 0 7 129 7
288 l0 287 -192 115 c-106 63 -221 132 -256 152 l-62 37 2 -291z"/>
<path d="M1348 1238 l-248 -149 0 -290 0 -291 38 22 c20 12 133 79 249 148
l213 127 0 293 c0 160 -1 291 -2 291 -2 -1 -114 -68 -250 -151z"/>
</g>
</svg>
